<svg height="512" viewBox="0 0 64 64" width="512" xmlns="http://www.w3.org/2000/svg"><g id="Fill_Outline" data-name="Fill Outline"><g id="Color"><path d="m3 53h58v4h-58z" fill="#fcea42"/><path d="m6 57h4v4h-4z" fill="#fdc741"/><path d="m54 57h4v4h-4z" fill="#fdc741"/><path d="m24 5h16v16h-16z" fill="#f9dbaf"/><path d="m29 5h6v6h-6z" fill="#fcf2ad"/><path d="m40 16v5h-16v-16h3v2a9 9 0 0 0 9 9z" fill="#edb88e"/><path d="m16 21h16v16h-16z" fill="#f9dbaf"/><path d="m21 21h6v6h-6z" fill="#fcf2ad"/><path d="m32 32v5h-16v-16h3v2a9 9 0 0 0 9 9z" fill="#edb88e"/><path d="m32 21h16v16h-16z" fill="#f9dbaf"/><path d="m37 21h6v6h-6z" fill="#fcf2ad"/><path d="m48 32v5h-16v-16h3v2a9 9 0 0 0 9 9z" fill="#edb88e"/><path d="m8 37h16v16h-16z" fill="#f9dbaf"/><path d="m13 37h6v6h-6z" fill="#fcf2ad"/><path d="m24 48v5h-16v-16h3v2a9 9 0 0 0 9 9z" fill="#edb88e"/><path d="m24 37h16v16h-16z" fill="#f9dbaf"/><path d="m29 37h6v6h-6z" fill="#fcf2ad"/><path d="m40 48v5h-16v-16h3v2a9 9 0 0 0 9 9z" fill="#edb88e"/><path d="m40 37h16v16h-16z" fill="#f9dbaf"/><path d="m45 37h6v6h-6z" fill="#fcf2ad"/><path d="m56 48v5h-16v-16h3v2a9 9 0 0 0 9 9z" fill="#edb88e"/><path d="m48 8a3.849 3.849 0 0 0 6.5 1.742 3.849 3.849 0 0 0 4.758 4.758 3.849 3.849 0 0 0 1.742 6.5 3.849 3.849 0 0 0 -1.742 6.5 3.849 3.849 0 0 0 -4.758 4.758 3.849 3.849 0 0 0 -6.5 1.742 3.849 3.849 0 0 0 -6.5-1.742 3.849 3.849 0 0 0 -4.758-4.758 3.849 3.849 0 0 0 -1.742-6.5 3.849 3.849 0 0 0 1.742-6.5 3.849 3.849 0 0 0 4.758-4.758 3.849 3.849 0 0 0 6.5-1.742z" fill="#fffa48"/><path d="m54.5 32.26a3.842 3.842 0 0 0 -6.5 1.74 3.842 3.842 0 0 0 -6.5-1.74 4.131 4.131 0 0 0 .15-1.08 3.847 3.847 0 0 0 -4.91-3.68 3.842 3.842 0 0 0 -1.74-6.5 3.842 3.842 0 0 0 1.74-6.5 4.131 4.131 0 0 0 1.08.15 3.8 3.8 0 0 0 3.18-1.72v.07a15.005 15.005 0 0 0 15 15h.07a3.809 3.809 0 0 0 -1.57 4.26z" fill="#fcea42"/><path d="m48 30.432a5.889 5.889 0 0 0 -4.712-1.27 5.83 5.83 0 0 0 -.811-1.474 5.917 5.917 0 0 0 -2.635-1.97 5.973 5.973 0 0 0 -1.26-4.718 5.973 5.973 0 0 0 1.26-4.718 5.916 5.916 0 0 0 2.635-1.969 5.853 5.853 0 0 0 .811-1.475 5.888 5.888 0 0 0 .961.079 5.863 5.863 0 0 0 3.751-1.349 5.889 5.889 0 0 0 4.712 1.27 5.853 5.853 0 0 0 .811 1.475 5.916 5.916 0 0 0 2.635 1.969 5.973 5.973 0 0 0 1.26 4.718 5.979 5.979 0 0 0 -1.261 4.718 5.914 5.914 0 0 0 -2.634 1.97 5.83 5.83 0 0 0 -.811 1.474 5.889 5.889 0 0 0 -4.712 1.27z" fill="#fcea42"/><path d="m53.46 27.78a6.158 6.158 0 0 0 -.75 1.38 6.017 6.017 0 0 0 -.96-.08 5.876 5.876 0 0 0 -3.75 1.35 5.876 5.876 0 0 0 -3.75-1.35 6.017 6.017 0 0 0 -.96.08 6.223 6.223 0 0 0 -.81-1.47 5.894 5.894 0 0 0 -2.64-1.97 6.006 6.006 0 0 0 -1.26-4.72 6.006 6.006 0 0 0 1.26-4.72 5.745 5.745 0 0 0 1.38-.74 14.984 14.984 0 0 0 12.24 12.24z" fill="#fdc741"/><circle cx="48" cy="21" fill="#ff7373" r="7"/><path d="m51.22 27.22a7.007 7.007 0 0 1 -9.44-9.44 15.022 15.022 0 0 0 9.44 9.44z" fill="#ef5350"/><path d="m61 55v2h-58v-4h2a2.006 2.006 0 0 0 2 2z" fill="#fdc741"/><g fill="#efad1b"><path d="m58 57v1a3 3 0 0 0 -3 3h-1v-4z"/><path d="m10 57v1a3 3 0 0 0 -3 3h-1v-4z"/></g></g><g id="Outline_copy" fill="#323232" data-name="Outline copy"><path d="m61 54a1 1 0 0 0 0-2h-4v-15a1 1 0 0 0 -1-1h-7v-1.834a2.84 2.84 0 0 1 4.781-1.212 1 1 0 0 0 1.681-.971 2.848 2.848 0 0 1 3.521-3.522 1 1 0 0 0 .97-1.68 2.85 2.85 0 0 1 1.29-4.811 1 1 0 0 0 0-1.94 2.85 2.85 0 0 1 -1.29-4.811 1 1 0 1 0 -1.391-1.438 4.869 4.869 0 0 0 .264 7.219 4.9 4.9 0 0 0 -1.45 5.413 4.9 4.9 0 0 0 -3.963 3.963 4.9 4.9 0 0 0 -5.413 1.451 4.9 4.9 0 0 0 -5.413-1.451 4.9 4.9 0 0 0 -3.963-3.963 4.9 4.9 0 0 0 -1.45-5.413 4.9 4.9 0 0 0 1.45-5.413 4.9 4.9 0 0 0 3.963-3.963 4.9 4.9 0 0 0 5.413-1.451 4.9 4.9 0 0 0 5.413 1.451 4.814 4.814 0 0 0 1.359 2.6 1 1 0 1 0 1.414-1.414 2.813 2.813 0 0 1 -.724-2.8 1 1 0 0 0 -1.681-.971 2.849 2.849 0 0 1 -4.811-1.282 1 1 0 0 0 -1.94 0 2.849 2.849 0 0 1 -4.811 1.289 1 1 0 0 0 -1.219-.17v-3.876a1 1 0 0 0 -1-1h-16a1 1 0 0 0 -1 1v6a1 1 0 0 0 2 0v-5h3v5a1 1 0 0 0 1 1h6a1 1 0 0 0 1-1v-5h3v7.365a2.809 2.809 0 0 1 -1.984.174 1 1 0 0 0 -.97 1.68 2.839 2.839 0 0 1 -1.214 4.781h-9.832v-5a1 1 0 0 0 -2 0v5h-7a1 1 0 0 0 -1 1v15h-7a1 1 0 0 0 -1 1v12a1 1 0 0 0 2 0v-11h3v5a1 1 0 0 0 1 1h6a1 1 0 0 0 1-1v-5h3v14h-20a1 1 0 0 0 -1 1v4a1 1 0 0 0 1 1h2v3a1 1 0 0 0 1 1h4a1 1 0 0 0 1-1v-3h42v3a1 1 0 0 0 1 1h4a1 1 0 0 0 1-1v-3h2a1 1 0 0 0 0-2h-57v-2zm-27-44h-4v-4h4zm21 42h-14v-14h3v5a1 1 0 0 0 1 1h6a1 1 0 0 0 1-1v-2a1 1 0 0 0 -2 0v1h-4v-4h9zm-18.183-28a2.811 2.811 0 0 1 -.771 2.784 1 1 0 0 0 .97 1.68 2.849 2.849 0 0 1 3.522 3.522 1 1 0 0 0 1.681.971 2.84 2.84 0 0 1 4.781 1.209v1.834h-14v-14h1.832a2.8 2.8 0 0 1 1.985 2zm-6.817 14h4v4h-4zm-4-16v4h-4v-4zm-8 20h-4v-4h4zm-1-6v-14h3v5a1 1 0 0 0 1 1h6a1 1 0 0 0 1-1v-5h3v14zm8 2h3v5a1 1 0 0 0 1 1h6a1 1 0 0 0 1-1v-5h3v14h-14zm32 20v2h-2v-2zm-48 0v2h-2v-2z"/><path d="m44.193 28.038a8 8 0 1 0 -3.23-3.231 1 1 0 0 0 1.758-.953 6 6 0 1 1 2.425 2.425 1 1 0 0 0 -.953 1.759z"/><path d="m46.293 23.707a1 1 0 0 0 1.414 0l4-4a1 1 0 0 0 -1.414-1.414l-3.293 3.293-1.293-1.293a1 1 0 0 0 -1.414 1.414z"/></g></g></svg>