<svg id="filled_outline" height="512" viewBox="0 0 512 512" width="512" xmlns="http://www.w3.org/2000/svg" data-name="filled outline"><path d="m63.58 88h24.84a7.58 7.58 0 0 1 7.58 7.58v40.42a0 0 0 0 1 0 0h-40a0 0 0 0 1 0 0v-40.42a7.58 7.58 0 0 1 7.58-7.58z" fill="#dd156d"/><path d="m88.42 88h-16a7.58 7.58 0 0 1 7.58 7.58v40.42h16v-40.42a7.58 7.58 0 0 0 -7.58-7.58z" fill="#a31a5a"/><path d="m136 120h64v48h-64z" fill="#d1e3ee"/><path d="m176 120h24v48h-24z" fill="#8cb9dd"/><path d="m48 120h56v48h-56z" fill="#8cb9dd"/><path d="m65.373 136h-17.373v-16h56a54.626 54.626 0 0 1 -38.627 16z" fill="#d1e3ee"/><path d="m24 224h464v160h-464z" fill="#252364"/><path d="m24 376h464v48h-464z" fill="#35378f"/><path d="m456 376h32v48h-32z" fill="#252364"/><path d="m24 232v-80h200l32-32h232v112" fill="#35378f"/><path d="m352 280h40a24 24 0 0 1 24 24 24 24 0 0 1 -24 24h-40a0 0 0 0 1 0 0v-48a0 0 0 0 1 0 0z" fill="#8cb9dd"/><path d="m392 280h-40v16h40a24.006 24.006 0 0 1 22.629 16 23.949 23.949 0 0 0 1.371-8 24 24 0 0 0 -24-24z" fill="#d1e3ee"/><path d="m376 152h64v48h-64z" fill="#8cb9dd"/><path d="m376 152h64a0 0 0 0 1 0 0 48 48 0 0 1 -48 48h-16a0 0 0 0 1 0 0v-48a0 0 0 0 1 0 0z" fill="#d1e3ee"/><circle cx="280" cy="168" fill="#d1b320" r="16"/><circle cx="80" cy="232" fill="#d1b320" r="16"/><path d="m456 232h32v144h-32z" fill="#161443"/><path d="m344 392h-176l-24-24v-128l24-24h176l24 24v128z" fill="#161443"/><circle cx="256" cy="304" fill="#f7c0a1" r="64"/><circle cx="256" cy="304" fill="#e2a688" r="32"/><path d="m456 120h32v112h-32z" fill="#252364"/><circle cx="240" cy="320" fill="#fff" r="8"/><circle cx="268" cy="292" fill="#fff" r="20"/><path d="m256 376a72 72 0 1 0 -72-72 72.081 72.081 0 0 0 72 72zm0-128a56 56 0 1 1 -56 56 56.063 56.063 0 0 1 56-56z"/><path d="m256 344a40 40 0 1 0 -40-40 40.045 40.045 0 0 0 40 40zm0-64a24 24 0 1 1 -24 24 24.028 24.028 0 0 1 24-24z"/><path d="m488 112h-232a8 8 0 0 0 -5.657 2.343l-29.656 29.657h-12.687v-24a8 8 0 0 0 -8-8h-64a8 8 0 0 0 -8 8v24h-16v-24a8 8 0 0 0 -8-8v-16.42a15.6 15.6 0 0 0 -15.579-15.58h-24.842a15.6 15.6 0 0 0 -15.579 15.58v16.42a8 8 0 0 0 -8 8v24h-16a8 8 0 0 0 -8 8v272a8 8 0 0 0 8 8h464a8 8 0 0 0 8-8v-304a8 8 0 0 0 -8-8zm-344 16h48v16h-48zm-80-32h24v16h-24zm-8 32h40v16h-40zm168 32a8 8 0 0 0 5.657-2.343l29.656-29.657h220.687v96h-116.686l-13.657-13.657a8 8 0 0 0 -5.657-2.343h-176a8 8 0 0 0 -5.657 2.343l-13.657 13.657h-46.062a24 24 0 0 0 -45.248 0h-25.376v-64zm256 208h-104v-32h16a32 32 0 0 0 0-64h-16v-32h104zm-344 0h-104v-128h25.376a24 24 0 0 0 45.248 0h33.376zm-64-136a8 8 0 1 1 8 8 8.009 8.009 0 0 1 -8-8zm80 11.313 19.313-19.313h169.374l19.313 19.313v121.374l-19.313 19.313h-169.374l-19.313-19.313zm224 44.687h16a16 16 0 0 1 0 32h-16zm104 128h-448v-32h116.686l13.657 13.657a8 8 0 0 0 5.657 2.343h176a8 8 0 0 0 5.657-2.343l13.657-13.657h116.686z"/><path d="m376 208h64a8 8 0 0 0 8-8v-48a8 8 0 0 0 -8-8h-64a8 8 0 0 0 -8 8v48a8 8 0 0 0 8 8zm8-48h48v32h-48z"/><path d="m280 192a24 24 0 1 0 -24-24 24.027 24.027 0 0 0 24 24zm0-32a8 8 0 1 1 -8 8 8.009 8.009 0 0 1 8-8z"/><path d="m440 256h16v16h-16z"/><path d="m440 288h16v56h-16z"/></svg>